# Exported from ProBuilder
# http://www.procore3d.com/probuilder
# 8/2/2017 9:30:36 PM

mtllib ./HouseSurvivors.mtl
o HouseSurvivors

g FactionColorObject
v -18.51812 1.868 26.24244
v -18.51812 1.868 25.24244
v -18.51812 1.998048 26.24244
v -18.51812 1.998048 25.24244
v -17.61928 1.868 25.66137
v -17.51812 1.868 26.24244
v -17.61928 1.998048 25.66137
v -17.51812 1.998048 26.24244
v -17.51812 1.868 26.24244
v -18.01812 1.868 26.24244
v -18.01812 1.998048 26.24244
v -17.51812 1.998048 26.24244
v -18.01812 1.868 26.24244
v -18.51812 1.868 26.24244
v -18.51812 1.998048 26.24244
v -18.01812 1.998048 26.24244
v -18.51812 1.868 25.24244
v -18.01812 1.868 25.24244
v -18.01812 1.998048 25.24244
v -18.51812 1.998048 25.24244
v -18.01812 1.868 25.24244
v -17.61928 1.868 25.66137
v -17.61928 1.998048 25.66137
v -18.01812 1.998048 25.24244
v -17.51812 1.998048 26.24244
v -18.01812 1.998048 26.24244
v -18.01812 1.998048 25.24244
v -17.61928 1.998048 25.66137
v -18.01812 1.998048 26.24244
v -18.51812 1.998048 26.24244
v -18.51812 1.998048 25.24244
v -18.01812 1.998048 25.24244

vn -1 0 0
vn -1 0 0
vn -1 0 0
vn -1 0 0
vn 0.9851799 0 -0.1715246
vn 0.9851799 0 -0.1715246
vn 0.9851799 0 -0.1715246
vn 0.9851799 0 -0.1715246
vn 0 0 1
vn 0 0 1
vn 0 0 1
vn 0 0 1
vn 0 0 1
vn 0 0 1
vn 0 0 1
vn 0 0 1
vn 0 0 -1
vn 0 0 -1
vn 0 0 -1
vn 0 0 -1
vn 0.7242709 0 -0.6895155
vn 0.7242709 0 -0.6895155
vn 0.7242709 0 -0.6895155
vn 0.7242709 0 -0.6895155
vn 0 1 0
vn 0 1 0
vn 0 1 0
vn 0 1 0
vn 0 1 0
vn 0 1 0
vn 0 1 0
vn 0 1 0

vt 0 0
vt -1 0
vt 0 0.1300478
vt -1 0.1300478
vt 0.5898033 0
vt 0 0
vt 0.5898033 0.1300478
vt 0 0.1300478
vt 0 0
vt -0.5 0
vt -0.5 0.1300478
vt 0 0.1300478
vt -0.5 0
vt -1 0
vt -1 0.1300478
vt -0.5 0.1300478
vt 1 -1
vt 0.5 -1
vt 0.5 -1
vt 1 -1
vt 0.5 -1
vt 0.1011658 -0.5810623
vt 0.1011658 -0.5810623
vt 0.5 -1
vt 0 0
vt 0.5 0
vt 0.5 -1
vt 0.1011658 -0.5810623
vt 0.5 0
vt 1 0
vt 1 -1
vt 0.5 -1

g pb_Mesh-274006
usemtl FlagPole
f 3/3/3 2/2/2 1/1/1
f 3/3/3 4/4/4 2/2/2
f 7/7/7 6/6/6 5/5/5
f 7/7/7 8/8/8 6/6/6
f 11/11/11 10/10/10 9/9/9
f 11/11/11 9/9/9 12/12/12
f 15/15/15 14/14/14 13/13/13
f 15/15/15 13/13/13 16/16/16
f 19/19/19 18/18/18 20/20/20
f 18/18/18 17/17/17 20/20/20
f 23/23/23 22/22/22 24/24/24
f 22/22/22 21/21/21 24/24/24
f 25/25/25 28/28/28 27/27/27
f 25/25/25 27/27/27 26/26/26
f 29/29/29 32/32/32 31/31/31
f 29/29/29 31/31/31 30/30/30

g House
v -16.99812 0.00399971 25.64944
v -17.22439 0.00399971 25.42316
v -16.99812 1.204 25.64944
v -17.22439 1.204 25.42316
v -17.67694 0.00399971 24.97062
v -17.90321 0.00399971 24.74434
v -17.67694 1.204 24.97062
v -17.90321 1.204 24.74434
v -16.99812 1.204 25.64944
v -17.22439 1.204 25.42316
v -16.99812 1.436444 25.64944
v -17.22439 1.604 25.42316
v -17.67694 1.204 24.97062
v -17.90321 1.204 24.74434
v -17.67694 1.604 24.97062
v -17.90321 1.436444 24.74434
v -17.22439 1.204 25.42316
v -17.67694 1.204 24.97062
v -17.22439 1.604 25.42316
v -17.67694 1.604 24.97062
v -17.08297 0.00399971 25.28174
v -16.85669 0.00399971 25.50801
v -17.08297 1.204 25.28174
v -16.85669 1.204 25.50801
v -17.76179 0.00399971 24.60292
v -17.53552 0.00399971 24.82919
v -17.76179 1.204 24.60292
v -17.53552 1.204 24.82919
v -17.08297 1.204 25.28174
v -16.85669 1.204 25.50801
v -17.08297 1.604 25.28174
v -16.85669 1.436444 25.50801
v -17.76179 1.204 24.60292
v -17.53552 1.204 24.82919
v -17.76179 1.436444 24.60292
v -17.53552 1.604 24.82919
v -17.53552 1.204 24.82919
v -17.08297 1.204 25.28174
v -17.53552 1.604 24.82919
v -17.08297 1.604 25.28174
v -17.08297 1.604 25.28174
v -16.99812 1.436444 25.64944
v -17.22439 1.604 25.42316
v -16.85669 1.436444 25.50801
v -16.99812 1.204 25.64944
v -16.85669 1.436444 25.50801
v -16.85669 1.204 25.50801
v -16.99812 1.436444 25.64944
v -16.85669 1.204 25.50801
v -16.99812 0.00399971 25.64944
v -16.99812 1.204 25.64944
v -16.85669 0.00399971 25.50801
v -17.53552 1.604 24.82919
v -17.22439 1.604 25.42316
v -17.67694 1.604 24.97062
v -17.08297 1.604 25.28174
v -17.67694 1.604 24.97062
v -17.76179 1.436444 24.60292
v -17.53552 1.604 24.82919
v -17.90321 1.436444 24.74434
v -17.76179 1.204 24.60292
v -17.90321 1.436444 24.74434
v -17.90321 1.204 24.74434
v -17.76179 1.436444 24.60292
v -17.90321 1.204 24.74434
v -17.76179 0.00399971 24.60292
v -17.76179 1.204 24.60292
v -17.90321 0.00399971 24.74434
v -17.15368 1.204 25.35245
v -17.53552 1.204 24.82919
v -17.60623 1.204 24.8999
v -17.08297 1.204 25.28174
v -17.53552 1.204 24.82919
v -17.60623 0.00399971 24.8999
v -17.60623 1.204 24.8999
v -17.53552 0.00399971 24.82919
v -17.15368 0.00399971 25.35245
v -17.08297 0.00399971 25.28174
v -17.08297 1.204 25.28174
v -17.15368 1.204 25.35245
v -17.93512 1.876836 24.78077
v -17.03512 1.876836 25.68077
v -17.03512 1.876836 26.58077
v -17.93512 1.876836 26.58077
v -18.83512 1.876836 24.78077
v -18.83512 1.876836 26.58077
v -17.15368 0.00399971 25.35245
v -17.60623 1.204 24.8999
v -17.60623 0.00399971 24.8999
v -17.15368 1.204 25.35245
v -18.93512 0 26.67244
v -18.93512 0 24.67244
v -18.93512 2 26.67244
v -18.93512 2 24.67244
v -16.93512 0 25.67244
v -16.93512 0 26.67244
v -16.93512 2 25.67244
v -16.93512 2 26.67244
v -16.93512 0 26.67244
v -17.93512 0 26.67244
v -17.93512 2 26.67244
v -16.93512 2 26.67244
v -18.93512 0 26.67244
v -18.93512 2 26.67244
v -18.93512 2 24.67244
v -17.93512 0 24.67244
v -17.93512 2 24.67244
v -18.93512 0 24.67244
v -17.93512 2 24.67244
v -16.93512 0 25.67244
v -16.93512 2 25.67244
v -17.93512 0 24.67244
v -16.93512 0 26.67244
v -17.93512 0 24.67244
v -17.93512 0 26.67244
v -16.93512 0 25.67244
v -18.93512 0 24.67244
v -18.93512 0 26.67244
v -18.93512 2 24.67244
v -17.93512 2 24.67244
v -18.83512 2 24.78077
v -17.93512 2 24.78077
v -16.93512 2 26.67244
v -17.93512 2 26.67244
v -17.03512 2 26.58077
v -17.93512 2 26.58077
v -18.93512 2 26.67244
v -18.93512 2 24.67244
v -18.83512 2 26.58077
v -18.83512 2 24.78077
v -17.93512 2 26.67244
v -18.93512 2 26.67244
v -17.93512 2 26.58077
v -18.83512 2 26.58077
v -17.93512 2 24.67244
v -16.93512 2 25.67244
v -17.93512 2 24.78077
v -17.03512 2 25.68077
v -16.93512 2 25.67244
v -16.93512 2 26.67244
v -17.03512 2 25.68077
v -17.03512 2 26.58077
v -18.83512 2 24.78077
v -17.93512 2 24.78077
v -18.83512 1.876836 24.78077
v -17.93512 1.876836 24.78077
v -17.03512 2 26.58077
v -17.93512 2 26.58077
v -17.03512 1.876836 26.58077
v -17.93512 1.876836 26.58077
v -18.83512 2 26.58077
v -18.83512 2 24.78077
v -18.83512 1.876836 26.58077
v -18.83512 1.876836 24.78077
v -17.93512 2 26.58077
v -18.83512 2 26.58077
v -17.93512 1.876836 26.58077
v -18.83512 1.876836 26.58077
v -17.93512 2 24.78077
v -17.03512 2 25.68077
v -17.93512 1.876836 24.78077
v -17.03512 1.876836 25.68077
v -17.03512 2 25.68077
v -17.03512 2 26.58077
v -17.03512 1.876836 25.68077
v -17.03512 1.876836 26.58077

vn -0.7071068 0 0.7071068
vn -0.7071068 0 0.7071068
vn -0.7071068 0 0.7071068
vn -0.7071068 0 0.7071068
vn -0.7071068 0 0.7071068
vn -0.7071068 0 0.7071068
vn -0.7071068 0 0.7071068
vn -0.7071068 0 0.7071068
vn -0.7071067 0 0.7071067
vn -0.7071068 0 0.7071068
vn -0.7071068 0 0.7071068
vn -0.7071068 0 0.7071068
vn -0.7071068 0 0.7071068
vn -0.7071068 0 0.7071068
vn -0.7071068 0 0.7071068
vn -0.7071067 0 0.7071067
vn -0.7071053 0 0.7071083
vn -0.7071053 0 0.7071083
vn -0.7071053 0 0.7071083
vn -0.7071053 0 0.7071083
vn 0.7071008 0 -0.7071128
vn 0.7071008 0 -0.7071128
vn 0.7071008 0 -0.7071128
vn 0.7071008 0 -0.7071128
vn 0.7071068 0 -0.7071068
vn 0.7071068 0 -0.7071068
vn 0.7071068 0 -0.7071068
vn 0.7071068 0 -0.7071068
vn 0.7071008 0 -0.7071127
vn 0.7071008 0 -0.7071127
vn 0.7071008 0 -0.7071127
vn 0.7071007 0 -0.7071127
vn 0.7071068 0 -0.7071068
vn 0.7071068 0 -0.7071068
vn 0.7071068 0 -0.7071068
vn 0.7071068 0 -0.7071068
vn 0.7071068 0 -0.7071068
vn 0.7071068 0 -0.7071068
vn 0.7071068 0 -0.7071068
vn 0.7071068 0 -0.7071068
vn 0.328005 0.8859038 0.328005
vn 0.328005 0.8859038 0.328005
vn 0.328005 0.8859037 0.328005
vn 0.328005 0.8859037 0.328005
vn 0.7071068 0 0.7071068
vn 0.7071068 0 0.7071068
vn 0.7071068 0 0.7071068
vn 0.7071068 0 0.7071068
vn 0.7071068 0 0.7071068
vn 0.7071068 0 0.7071068
vn 0.7071068 0 0.7071068
vn 0.7071068 0 0.7071068
vn 0 1 0
vn 0 1 0
vn 0 1 0
vn 0 1 0
vn -0.3280061 0.8859029 -0.3280061
vn -0.3280061 0.8859029 -0.3280061
vn -0.3280094 0.8859022 -0.328005
vn -0.3280028 0.8859037 -0.3280072
vn -0.707102 0 -0.7071115
vn -0.707102 0 -0.7071115
vn -0.707102 0 -0.7071115
vn -0.707102 0 -0.7071115
vn -0.707102 0 -0.7071115
vn -0.707102 0 -0.7071115
vn -0.707102 0 -0.7071115
vn -0.707102 0 -0.7071115
vn 0 -1 0
vn 0 -1 0
vn 0 -1 0
vn 0 -1 0
vn 0.7071162 0 0.7070972
vn 0.7071162 0 0.7070972
vn 0.7071162 0 0.7070972
vn 0.7071162 0 0.7070972
vn -0.7071162 0 -0.7070972
vn -0.7071162 0 -0.7070972
vn -0.7071162 0 -0.7070972
vn -0.7071162 0 -0.7070972
vn 0 1 0
vn 0 1 0
vn 0 1 0
vn 0 1 0
vn 0 1 0
vn 0 1 0
vn 0.7071068 0 -0.7071068
vn 0.7071068 0 -0.7071068
vn 0.7071068 0 -0.7071068
vn 0.7071068 0 -0.7071068
vn -1 0 0
vn -1 0 0
vn -1 0 0
vn -1 0 0
vn 1 0 0
vn 1 0 0
vn 1 0 0
vn 1 0 0
vn 0 0 1
vn 0 0 1
vn 0 0 1
vn 0 0 1
vn 0 0 1
vn 0 0 1
vn 0 0 -1
vn 0 0 -1
vn 0 0 -1
vn 0 0 -1
vn 0.7071068 0 -0.7071068
vn 0.7071068 0 -0.7071068
vn 0.7071068 0 -0.7071068
vn 0.7071068 0 -0.7071068
vn 0 -1 0
vn 0 -1 0
vn 0 -1 0
vn 0 -1 0
vn 0 -1 0
vn 0 -1 0
vn 0 0.9999999 0
vn 0 1 0
vn 0 1 0
vn 0 1 0
vn 0 0.9999999 0
vn 0 0.9999999 0
vn 0 0.9999999 0
vn 0 1 0
vn 0 1 0
vn 0 0.9999999 0
vn 0 0.9999999 0
vn 0 0.9999999 0
vn 0 0.9999999 0
vn 0 0.9999999 0
vn 0 0.9999999 0
vn 0 1 0
vn 0 0.9999999 0
vn 0 1 0
vn 0 1 0
vn 0 1 0
vn 0 1 0
vn 0 0.9999999 0
vn 0 0.9999999 0
vn 0 0.9999999 0
vn 0 0 1
vn 0 0 1
vn 0 0 1
vn 0 0 1
vn 0 0 -1
vn 0 0 -1
vn 0 0 -1
vn 0 0 -1
vn 1 0 0
vn 1 0 0
vn 1 0 0
vn 1 0 0
vn 0 0 -1
vn 0 0 -1
vn 0 0 -1
vn 0 0 -1
vn -0.7071068 0 0.7071068
vn -0.7071068 0 0.7071068
vn -0.7071068 0 0.7071068
vn -0.7071068 0 0.7071068
vn -1 0 0
vn -1 0 0
vn -1 0 0
vn -1 0 0

vt -0.25 0.75
vt -0.75 0.75
vt -0.25 2.25
vt -0.75 2.25
vt -3.25 0.75
vt -3.75 0.75
vt -3.25 2.25
vt -3.75 2.25
vt -0.25 3.25
vt -0.75 3.25
vt -0.25 3.540556
vt -0.75 3.75
vt -3.25 3.25
vt -3.75 3.25
vt -3.25 3.75
vt -3.75 3.540556
vt -1.5 3.25
vt -2.5 3.25
vt -1.5 3.75
vt -2.5 3.75
vt 0.75 0.75
vt 0.25 0.75
vt 0.75 2.25
vt 0.25 2.25
vt 3.75 0.75
vt 3.25 0.75
vt 3.75 2.25
vt 3.25 2.25
vt 0.75 3.25
vt 0.25 3.25
vt 0.75 3.75
vt 0.25 3.540556
vt 3.75 3.25
vt 3.25 3.25
vt 3.75 3.540556
vt 3.25 3.75
vt 2.5 3.25
vt 1.5 3.25
vt 2.5 3.75
vt 1.5 3.75
vt 2.196742 -0.375
vt 1.654647 -0.125
vt 2.196742 -0.125
vt 1.654647 -0.375
vt 0.125 3.145278
vt 0.375 3.435834
vt 0.375 3.145278
vt 0.125 3.435834
vt 0.375 2.25
vt 0.125 0.75
vt 0.125 2.25
vt 0.375 0.75
vt 2.5 -0.375
vt 1.5 -0.125
vt 2.5 -0.125
vt 1.5 -0.375
vt 1.49265 -0.125
vt 2.034745 -0.375
vt 1.49265 -0.375
vt 2.034745 -0.125
vt -0.375 3.145278
vt -0.125 3.435834
vt -0.125 3.145278
vt -0.375 3.435834
vt -0.125 2.25
vt -0.375 0.75
vt -0.375 2.25
vt -0.125 0.75
vt -1.5 -0.3125
vt -2.5 -0.4375
vt -2.5 -0.3125
vt -1.5 -0.4375
vt 0.4375 2.25
vt 0.3125 0.75
vt 0.3125 2.25
vt 0.4375 0.75
vt -0.3125 0.75
vt -0.4375 0.75
vt -0.4375 2.25
vt -0.3125 2.25
vt 0 -1.891667
vt -0.9 -0.9916667
vt -0.9 -0.09166646
vt 0 -0.09166646
vt 0.9 -1.891667
vt 0.9 -0.09166646
vt 5.960464E-07 -0.01187044
vt 1.000001 1.01352
vt 1.000001 -0.01187044
vt 5.960464E-07 1.01352
vt -0.5 0.5
vt -1.5 0.5
vt -0.5 1.5
vt -1.5 1.5
vt 0.75 0.5
vt 0.25 0.5
vt 0.75 1.5
vt 0.25 1.5
vt 0.5 0.5
vt 0 0.5
vt 0 1.5
vt 0.5 1.5
vt -0.5 0.5
vt -0.5 1.5
vt -1.229837 1.5
vt -0.7826238 0.5
vt -0.7826238 1.5
vt -1.229837 0.5
vt -0.7826238 1.5
vt -0.1118034 0.5
vt -0.1118034 1.5
vt -0.7826238 0.5
vt -0.5 -0.5
vt 0 -1.5
vt 0 -0.5
vt -0.5 -1
vt 0.5 -1.5
vt 0.5 -0.5
vt 0.75 -1.972917
vt 0.25 -1.972917
vt 0.7 -1.91875
vt 0.25 -1.91875
vt -0.75 -0.02291662
vt -0.25 -0.02291662
vt -0.7 -0.06874985
vt -0.25 -0.06874985
vt 0.975 -0.5
vt 0.975 -1.5
vt 0.925 -0.5458332
vt 0.925 -1.445833
vt 0.25 -0.02291662
vt 0.75 -0.02291662
vt 0.25 -0.06874985
vt 0.7 -0.06874985
vt -0.25 -1.747917
vt -0.75 -1.247917
vt -0.25 -1.69375
vt -0.7 -1.24375
vt -0.975 -0.75
vt -0.975 -0.25
vt -0.925 -0.7458333
vt -0.925 -0.2958332
vt -0.675 1.969209
vt -0.225 1.969209
vt -0.675 1.907627
vt -0.225 1.907627
vt -0.675 1.969209
vt -0.225 1.969209
vt -0.675 1.907627
vt -0.225 1.907627
vt 0.5416666 1.969209
vt 1.441667 1.969209
vt 0.5416666 1.907627
vt 1.441667 1.907627
vt 0.225 1.969209
vt 0.675 1.969209
vt 0.225 1.907627
vt 0.675 1.907627
vt -1.019413 1.969209
vt -0.3830164 1.969209
vt -1.019413 1.907627
vt -0.3830164 1.907627
vt -0.7666667 1.969209
vt -0.3166665 1.969209
vt -0.7666667 1.907627
vt -0.3166665 1.907627

g pb_Mesh-281110_0
usemtl DirtyConcrete
f 35/35/35 34/34/34 33/33/33
f 35/35/35 36/36/36 34/34/34
f 39/39/39 38/38/38 37/37/37
f 39/39/39 40/40/40 38/38/38
f 43/43/43 42/42/42 41/41/41
f 43/43/43 44/44/44 42/42/42
f 47/47/47 46/46/46 45/45/45
f 47/47/47 48/48/48 46/46/46
f 51/51/51 50/50/50 49/49/49
f 51/51/51 52/52/52 50/50/50
f 55/55/55 54/54/54 53/53/53
f 55/55/55 56/56/56 54/54/54
f 59/59/59 58/58/58 57/57/57
f 59/59/59 60/60/60 58/58/58
f 63/63/63 62/62/62 61/61/61
f 63/63/63 64/64/64 62/62/62
f 67/67/67 66/66/66 65/65/65
f 67/67/67 68/68/68 66/66/66
f 71/71/71 70/70/70 69/69/69
f 71/71/71 72/72/72 70/70/70
f 75/75/75 74/74/74 73/73/73
f 74/74/74 76/76/76 73/73/73
f 79/79/79 78/78/78 77/77/77
f 78/78/78 80/80/80 77/77/77
f 83/83/83 82/82/82 81/81/81
f 82/82/82 84/84/84 81/81/81
f 87/87/87 86/86/86 85/85/85
f 86/86/86 88/88/88 85/85/85
f 91/91/91 90/90/90 89/89/89
f 90/90/90 92/92/92 89/89/89
f 95/95/95 94/94/94 93/93/93
f 94/94/94 96/96/96 93/93/93
f 99/99/99 98/98/98 97/97/97
f 98/98/98 100/100/100 97/97/97
f 103/103/103 102/102/102 101/101/101
f 102/102/102 104/104/104 101/101/101
f 107/107/107 106/106/106 105/105/105
f 106/106/106 108/108/108 105/105/105
f 111/111/111 110/110/110 109/109/109
f 111/111/111 109/109/109 112/112/112
f 115/115/115 114/114/114 113/113/113
f 115/115/115 113/113/113 116/116/116
f 116/116/116 113/113/113 117/117/117
f 116/116/116 117/117/117 118/118/118

g pb_Mesh-281110_1
usemtl Door
f 121/121/121 120/120/120 119/119/119
f 120/120/120 122/122/122 119/119/119

g pb_Mesh-281110_2
usemtl Concrete
f 125/125/125 124/124/124 123/123/123
f 125/125/125 126/126/126 124/124/124
f 129/129/129 128/128/128 127/127/127
f 129/129/129 130/130/130 128/128/128
f 133/133/133 132/132/132 131/131/131
f 133/133/133 131/131/131 134/134/134
f 136/136/136 135/135/135 132/132/132
f 136/136/136 132/132/132 133/133/133
f 139/139/139 138/138/138 137/137/137
f 138/138/138 140/140/140 137/137/137
f 143/143/143 142/142/142 141/141/141
f 142/142/142 144/144/144 141/141/141
f 147/147/147 146/146/146 145/145/145
f 146/146/146 148/148/148 145/145/145
f 150/150/150 149/149/149 147/147/147
f 149/149/149 146/146/146 147/147/147
f 153/153/153 152/152/152 151/151/151
f 153/153/153 154/154/154 152/152/152
f 157/157/157 156/156/156 155/155/155
f 157/157/157 158/158/158 156/156/156
f 161/161/161 160/160/160 159/159/159
f 161/161/161 162/162/162 160/160/160
f 165/165/165 164/164/164 163/163/163
f 165/165/165 166/166/166 164/164/164
f 169/169/169 168/168/168 167/167/167
f 169/169/169 170/170/170 168/168/168
f 173/173/173 172/172/172 171/171/171
f 173/173/173 174/174/174 172/172/172
f 177/177/177 176/176/176 175/175/175
f 177/177/177 178/178/178 176/176/176
f 181/181/181 180/180/180 179/179/179
f 181/181/181 182/182/182 180/180/180
f 185/185/185 184/184/184 183/183/183
f 185/185/185 186/186/186 184/184/184
f 189/189/189 188/188/188 187/187/187
f 189/189/189 190/190/190 188/188/188
f 193/193/193 192/192/192 191/191/191
f 193/193/193 194/194/194 192/192/192
f 197/197/197 196/196/196 195/195/195
f 197/197/197 198/198/198 196/196/196

