# Exported from ProBuilder
# http://www.procore3d.com/probuilder
# 8/2/2017 9:29:39 PM

mtllib ./HouseInvaders.mtl
o HouseInvaders

g FactionColorObject
v -27.22674 1.841116 13.99714
v -28.22674 1.841116 13.99714
v -27.22674 2.002144 13.99714
v -28.22674 2.002144 13.99714
v -28.22674 1.841116 13.99714
v -28.22674 1.841116 12.99714
v -28.22674 2.002144 13.99714
v -28.22674 2.002144 12.99714
v -28.22674 1.841116 12.99714
v -27.22674 1.841116 12.99714
v -28.22674 2.002144 12.99714
v -27.22674 2.002144 12.99714
v -27.22674 1.841116 12.99714
v -27.22674 1.841116 13.99714
v -27.22674 2.002144 12.99714
v -27.22674 2.002144 13.99714
v -27.22674 2.002144 13.99714
v -28.22674 2.002144 13.99714
v -27.22674 2.002144 12.99714
v -28.22674 2.002144 12.99714

vn 0 0 1
vn 0 0 1
vn 0 0 1
vn 0 0 1
vn -1 0 0
vn -1 0 0
vn -1 0 0
vn -1 0 0
vn 0 0 -1
vn 0 0 -1
vn 0 0 -1
vn 0 0 -1
vn 1 0 0
vn 1 0 0
vn 1 0 0
vn 1 0 0
vn 0 1 0
vn 0 1 0
vn 0 1 0
vn 0 1 0

vt 0 -0.01488352
vt -1 -0.01488352
vt 0 0.1461439
vt -1 0.1461439
vt 0 -0.01488352
vt -1 -0.01488352
vt 0 0.1461439
vt -1 0.1461439
vt 1 -0.01488352
vt 0 -0.01488352
vt 1 0.1461439
vt 0 0.1461439
vt 1 -0.01488352
vt 0 -0.01488352
vt 1 0.1461439
vt 0 0.1461439
vt 0 0
vt 1 0
vt 0 -1
vt 1 -1

g pb_Mesh-263314
usemtl FlagPole
f 3/3/3 2/2/2 1/1/1
f 3/3/3 4/4/4 2/2/2
f 7/7/7 6/6/6 5/5/5
f 7/7/7 8/8/8 6/6/6
f 11/11/11 10/10/10 9/9/9
f 11/11/11 12/12/12 10/10/10
f 15/15/15 14/14/14 13/13/13
f 15/15/15 16/16/16 14/14/14
f 19/19/19 18/18/18 17/17/17
f 19/19/19 20/20/20 18/18/18

g House
v -26.89474 0.004000001 12.53614
v -27.29473 0.004000001 12.53614
v -26.89474 1.204 12.53614
v -27.29473 1.204 12.53614
v -28.09474 0.004000001 12.53614
v -28.49474 0.004000001 12.53614
v -28.09474 1.204 12.53614
v -28.49474 1.204 12.53614
v -26.89474 1.204 12.53614
v -27.29473 1.204 12.53614
v -26.89474 1.436445 12.53614
v -27.29473 1.604 12.53614
v -28.09474 1.204 12.53614
v -28.49474 1.204 12.53614
v -28.09474 1.604 12.53614
v -28.49474 1.436445 12.53614
v -27.29473 1.204 12.53614
v -28.09474 1.204 12.53614
v -27.29473 1.604 12.53614
v -28.09474 1.604 12.53614
v -27.29473 0.004000001 12.33614
v -26.89474 0.004000001 12.33614
v -27.29473 1.204 12.33614
v -26.89474 1.204 12.33614
v -28.49474 0.004000001 12.33614
v -28.09474 0.004000001 12.33614
v -28.49474 1.204 12.33614
v -28.09474 1.204 12.33614
v -27.29473 1.204 12.33614
v -26.89474 1.204 12.33614
v -27.29473 1.604 12.33614
v -26.89474 1.436445 12.33614
v -28.49474 1.204 12.33614
v -28.09474 1.204 12.33614
v -28.49474 1.436445 12.33614
v -28.09474 1.604 12.33614
v -28.09474 1.204 12.33614
v -27.29473 1.204 12.33614
v -28.09474 1.604 12.33614
v -27.29473 1.604 12.33614
v -27.29473 1.604 12.33614
v -26.89474 1.436445 12.53614
v -27.29473 1.604 12.53614
v -26.89474 1.436445 12.33614
v -26.89474 1.204 12.53614
v -26.89474 1.436445 12.33614
v -26.89474 1.204 12.33614
v -26.89474 1.436445 12.53614
v -26.89474 1.204 12.33614
v -26.89474 0.004000001 12.53614
v -26.89474 1.204 12.53614
v -26.89474 0.004000001 12.33614
v -28.09474 1.604 12.33614
v -27.29473 1.604 12.53614
v -28.09474 1.604 12.53614
v -27.29473 1.604 12.33614
v -28.09474 1.604 12.53614
v -28.49474 1.436445 12.33614
v -28.09474 1.604 12.33614
v -28.49474 1.436445 12.53614
v -28.49474 1.204 12.33614
v -28.49474 1.436445 12.53614
v -28.49474 1.204 12.53614
v -28.49474 1.436445 12.33614
v -28.49474 1.204 12.53614
v -28.49474 0.004000001 12.33614
v -28.49474 1.204 12.33614
v -28.49474 0.004000001 12.53614
v -27.29473 1.204 12.43614
v -28.09474 1.204 12.33614
v -28.09474 1.204 12.43614
v -27.29473 1.204 12.33614
v -28.09474 1.204 12.33614
v -28.09474 0.004000001 12.43614
v -28.09474 1.204 12.43614
v -28.09474 0.004000001 12.33614
v -27.29473 0.004000001 12.43614
v -27.29473 0.004000001 12.33614
v -27.29473 1.204 12.33614
v -27.29473 1.204 12.43614
v -26.79574 1.859931 14.38313
v -28.59574 1.859931 14.38313
v -26.79574 1.859931 12.58314
v -28.59574 1.859931 12.58314
v -27.29473 0.004000001 12.43614
v -28.09474 1.204 12.43614
v -28.09474 0.004000001 12.43614
v -27.29473 1.204 12.43614
v -26.69574 0 12.48314
v -28.69574 0 12.48314
v -26.69574 0 14.48314
v -28.69574 0 14.48314
v -26.69574 2 14.48314
v -28.69574 2 14.48314
v -26.79574 2 14.38313
v -28.59574 2 14.38313
v -26.69574 2 12.48314
v -26.69574 2 14.48314
v -26.79574 2 12.58314
v -26.79574 2 14.38313
v -28.69574 2 14.48314
v -28.69574 2 12.48314
v -28.59574 2 14.38313
v -28.59574 2 12.58314
v -28.69574 2 12.48314
v -26.69574 2 12.48314
v -28.59574 2 12.58314
v -26.79574 2 12.58314
v -26.79574 2 14.38313
v -28.59574 2 14.38313
v -26.79574 1.859931 14.38313
v -28.59574 1.859931 14.38313
v -26.79574 2 12.58314
v -26.79574 2 14.38313
v -26.79574 1.859931 12.58314
v -26.79574 1.859931 14.38313
v -28.59574 2 14.38313
v -28.59574 2 12.58314
v -28.59574 1.859931 14.38313
v -28.59574 1.859931 12.58314
v -28.59574 2 12.58314
v -26.79574 2 12.58314
v -28.59574 1.859931 12.58314
v -26.79574 1.859931 12.58314
v -26.69574 0 14.48314
v -28.69574 0 14.48314
v -28.69574 1.781827 14.48314
v -26.69574 1.781827 14.48314
v -28.69574 2 14.48314
v -26.69574 2 14.48314
v -28.69574 0 14.48314
v -28.69574 0 12.48314
v -28.69574 1.781827 12.48314
v -28.69574 1.781827 14.48314
v -28.69574 2 12.48314
v -28.69574 2 14.48314
v -28.69574 1.781827 12.48314
v -26.69574 0 12.48314
v -26.69574 1.781827 12.48314
v -28.69574 0 12.48314
v -28.69574 2 12.48314
v -26.69574 2 12.48314
v -26.69574 1.781827 12.48314
v -26.69574 0 14.48314
v -26.69574 1.781827 14.48314
v -26.69574 0 12.48314
v -26.69574 2 12.48314
v -26.69574 2 14.48314

vn 0 0 1
vn 0 0 1
vn 0 0 1
vn 0 0 1
vn 0 0 1
vn 0 0 1
vn 0 0 1
vn 0 0 1
vn 0 0 1
vn 0 0 1
vn 0 0 1
vn 0 0 1
vn 0 0 1
vn 0 0 1
vn 0 0 1
vn 0 0 1
vn 0 0 1
vn 0 0 1
vn 0 0 1
vn 0 0 1
vn 0 0 -1
vn 0 0 -1
vn 0 0 -1
vn 0 0 -1
vn 0 0 -1
vn 0 0 -1
vn 0 0 -1
vn 0 0 -1
vn 0 0 -1
vn 0 0 -1
vn 0 0 -1
vn 0 0 -1
vn 0 0 -1
vn 0 0 -1
vn 0 0 -1
vn 0 0 -1
vn 0 0 -1
vn 0 0 -1
vn 0 0 -1
vn 0 0 -1
vn 0.3863606 0.9223478 0
vn 0.3863606 0.9223478 0
vn 0.3863606 0.9223478 0
vn 0.3863606 0.9223478 0
vn 1 0 0
vn 1 0 0
vn 1 0 0
vn 1 0 0
vn 1 0 0
vn 1 0 0
vn 1 0 0
vn 1 0 0
vn 0 1 0
vn 0 1 0
vn 0 1 0
vn 0 1 0
vn -0.3863606 0.9223478 0
vn -0.3863606 0.9223478 0
vn -0.3863606 0.9223478 0
vn -0.3863606 0.9223478 0
vn -1 0 0
vn -1 0 0
vn -1 0 0
vn -1 0 0
vn -1 0 0
vn -1 0 0
vn -1 0 0
vn -1 0 0
vn 0 -0.9999999 0
vn 0 -0.9999999 0
vn 0 -0.9999999 0
vn 0 -0.9999999 0
vn 1 0 0
vn 1 0 0
vn 1 0 0
vn 1 0 0
vn -1 0 0
vn -1 0 0
vn -1 0 0
vn -1 0 0
vn 0 1 0
vn 0 1 0
vn 0 1 0
vn 0 1 0
vn 0 0 -1
vn 0 0 -1
vn 0 0 -1
vn 0 0 -1
vn 0 -1 0
vn 0 -1 0
vn 0 -1 0
vn 0 -1 0
vn 0 1 0
vn 0 0.9999999 0
vn 0 0.9999999 0
vn 0 0.9999999 0
vn 0 1 0
vn 0 0.9999999 0
vn 0 0.9999999 0
vn 0 0.9999999 0
vn 0 1 0
vn 0 0.9999999 0
vn 0 0.9999999 0
vn 0 0.9999999 0
vn 0 1 0
vn 0 0.9999999 0
vn 0 0.9999999 0
vn 0 0.9999999 0
vn 0 0 -1
vn 0 0 -1
vn 0 0 -1
vn 0 0 -1
vn -1 0 0
vn -1 0 0
vn -1 0 0
vn -1 0 0
vn 1 0 0
vn 1 0 0
vn 1 0 0
vn 1 0 0
vn 0 0 1
vn 0 0 1
vn 0 0 1
vn 0 0 1
vn 0 0 1
vn 0 0 1
vn 0 0 1
vn 0 0 1
vn 0 0 1
vn 0 0 1
vn -1 0 0
vn -1 0 0
vn -1 0 0
vn -1 0 0
vn -1 0 0
vn -1 0 0
vn 0 0 -1
vn 0 0 -1
vn 0 0 -1
vn 0 0 -1
vn 0 0 -1
vn 0 0 -1
vn 1 0 0
vn 1 0 0
vn 1 0 0
vn 1 0 0
vn 1 0 0
vn 1 0 0

vt -0.25 0.75
vt -0.75 0.75
vt -0.25 2.25
vt -0.75 2.25
vt -3.25 0.75
vt -3.75 0.75
vt -3.25 2.25
vt -3.75 2.25
vt -0.25 3.25
vt -0.75 3.25
vt -0.25 3.540556
vt -0.75 3.75
vt -3.25 3.25
vt -3.75 3.25
vt -3.25 3.75
vt -3.75 3.540556
vt -1.5 3.25
vt -2.5 3.25
vt -1.5 3.75
vt -2.5 3.75
vt 0.75 0.75
vt 0.25 0.75
vt 0.75 2.25
vt 0.25 2.25
vt 3.75 0.75
vt 3.25 0.75
vt 3.75 2.25
vt 3.25 2.25
vt 0.75 3.25
vt 0.25 3.25
vt 0.75 3.75
vt 0.25 3.540556
vt 3.75 3.25
vt 3.25 3.25
vt 3.75 3.540556
vt 3.25 3.75
vt 2.5 3.25
vt 1.5 3.25
vt 2.5 3.75
vt 1.5 3.75
vt 2.196742 -0.375
vt 1.654647 -0.125
vt 2.196742 -0.125
vt 1.654647 -0.375
vt 0.125 3.145278
vt 0.375 3.435834
vt 0.375 3.145278
vt 0.125 3.435834
vt 0.375 2.25
vt 0.125 0.75
vt 0.125 2.25
vt 0.375 0.75
vt 2.5 -0.375
vt 1.5 -0.125
vt 2.5 -0.125
vt 1.5 -0.375
vt 1.49265 -0.125
vt 2.034745 -0.375
vt 1.49265 -0.375
vt 2.034745 -0.125
vt -0.375 3.145278
vt -0.125 3.435834
vt -0.125 3.145278
vt -0.375 3.435834
vt -0.125 2.25
vt -0.375 0.75
vt -0.375 2.25
vt -0.125 0.75
vt -1.5 -0.3125
vt -2.5 -0.4375
vt -2.5 -0.3125
vt -1.5 -0.4375
vt 0.4375 2.25
vt 0.3125 0.75
vt 0.3125 2.25
vt 0.4375 0.75
vt -0.3125 0.75
vt -0.4375 0.75
vt -0.4375 2.25
vt -0.3125 2.25
vt -0.9 -0.09999979
vt 0.9 -0.09999979
vt -0.9 -1.9
vt 0.9 -1.9
vt 5.960464E-07 -0.01187044
vt 1.000001 1.01352
vt 1.000001 -0.01187044
vt 5.960464E-07 1.01352
vt 0.5 -1.5
vt -0.5 -1.5
vt 0.5 -0.5
vt -0.5 -0.5
vt -0.5 -0.02499995
vt 0.5 -0.02499995
vt -0.45 -0.07499984
vt 0.45 -0.07499984
vt -0.975 -1.5
vt -0.975 -0.5
vt -0.925 -1.45
vt -0.925 -0.5499999
vt 0.975 -0.5
vt 0.975 -1.5
vt 0.925 -0.5499999
vt 0.925 -1.45
vt 0.5 -1.975
vt -0.5 -1.975
vt 0.45 -1.925
vt -0.45 -1.925
vt -0.45 1.964983
vt 0.45 1.964983
vt -0.45 1.894948
vt 0.45 1.894948
vt -1.45 1.964983
vt -0.5499999 1.964983
vt -1.45 1.894948
vt -0.5499999 1.894948
vt 0.5499999 1.964983
vt 1.45 1.964983
vt 0.5499999 1.894948
vt 1.45 1.894948
vt -0.45 1.964983
vt 0.45 1.964983
vt -0.45 1.894948
vt 0.45 1.894948
vt 0.5 0.5
vt -0.5 0.5
vt -0.5 1.390913
vt 0.5 1.390913
vt -0.5 1.5
vt 0.5 1.5
vt -0.5 0.5
vt -1.5 0.5
vt -1.5 1.390913
vt -0.5 1.390913
vt -1.5 1.5
vt -0.5 1.5
vt -0.5 1.390913
vt 0.5 0.5
vt 0.5 1.390913
vt -0.5 0.5
vt -0.5 1.5
vt 0.5 1.5
vt -1.5 1.390913
vt -0.5 0.5
vt -0.5 1.390913
vt -1.5 0.5
vt -1.5 1.5
vt -0.5 1.5

g pb_Mesh-267072_0
usemtl DirtyConcrete
f 23/23/23 22/22/22 21/21/21
f 23/23/23 24/24/24 22/22/22
f 27/27/27 26/26/26 25/25/25
f 27/27/27 28/28/28 26/26/26
f 31/31/31 30/30/30 29/29/29
f 31/31/31 32/32/32 30/30/30
f 35/35/35 34/34/34 33/33/33
f 35/35/35 36/36/36 34/34/34
f 39/39/39 38/38/38 37/37/37
f 39/39/39 40/40/40 38/38/38
f 43/43/43 42/42/42 41/41/41
f 43/43/43 44/44/44 42/42/42
f 47/47/47 46/46/46 45/45/45
f 47/47/47 48/48/48 46/46/46
f 51/51/51 50/50/50 49/49/49
f 51/51/51 52/52/52 50/50/50
f 55/55/55 54/54/54 53/53/53
f 55/55/55 56/56/56 54/54/54
f 59/59/59 58/58/58 57/57/57
f 59/59/59 60/60/60 58/58/58
f 63/63/63 62/62/62 61/61/61
f 62/62/62 64/64/64 61/61/61
f 67/67/67 66/66/66 65/65/65
f 66/66/66 68/68/68 65/65/65
f 71/71/71 70/70/70 69/69/69
f 70/70/70 72/72/72 69/69/69
f 75/75/75 74/74/74 73/73/73
f 74/74/74 76/76/76 73/73/73
f 79/79/79 78/78/78 77/77/77
f 78/78/78 80/80/80 77/77/77
f 83/83/83 82/82/82 81/81/81
f 82/82/82 84/84/84 81/81/81
f 87/87/87 86/86/86 85/85/85
f 86/86/86 88/88/88 85/85/85
f 91/91/91 90/90/90 89/89/89
f 90/90/90 92/92/92 89/89/89
f 95/95/95 94/94/94 93/93/93
f 94/94/94 96/96/96 93/93/93
f 99/99/99 98/98/98 97/97/97
f 99/99/99 97/97/97 100/100/100
f 103/103/103 102/102/102 101/101/101
f 103/103/103 104/104/104 102/102/102

g pb_Mesh-267072_1
usemtl Door
f 107/107/107 106/106/106 105/105/105
f 106/106/106 108/108/108 105/105/105

g pb_Mesh-267072_2
usemtl Concrete
f 111/111/111 110/110/110 109/109/109
f 111/111/111 112/112/112 110/110/110
f 115/115/115 114/114/114 113/113/113
f 115/115/115 116/116/116 114/114/114
f 119/119/119 118/118/118 117/117/117
f 119/119/119 120/120/120 118/118/118
f 123/123/123 122/122/122 121/121/121
f 123/123/123 124/124/124 122/122/122
f 127/127/127 126/126/126 125/125/125
f 127/127/127 128/128/128 126/126/126
f 131/131/131 130/130/130 129/129/129
f 131/131/131 132/132/132 130/130/130
f 135/135/135 134/134/134 133/133/133
f 135/135/135 136/136/136 134/134/134
f 139/139/139 138/138/138 137/137/137
f 139/139/139 140/140/140 138/138/138
f 143/143/143 142/142/142 141/141/141
f 143/143/143 144/144/144 142/142/142
f 147/147/147 146/146/146 145/145/145
f 147/147/147 145/145/145 148/148/148
f 149/149/149 147/147/147 148/148/148
f 149/149/149 148/148/148 150/150/150
f 153/153/153 152/152/152 151/151/151
f 153/153/153 151/151/151 154/154/154
f 155/155/155 153/153/153 154/154/154
f 155/155/155 154/154/154 156/156/156
f 159/159/159 158/158/158 157/157/157
f 158/158/158 160/160/160 157/157/157
f 162/162/162 159/159/159 161/161/161
f 159/159/159 157/157/157 161/161/161
f 165/165/165 164/164/164 163/163/163
f 164/164/164 166/166/166 163/163/163
f 168/168/168 165/165/165 167/167/167
f 165/165/165 163/163/163 167/167/167

